<svg width="31" height="30" viewBox="0 0 31 30" fill="none" xmlns="http://www.w3.org/2000/svg">
<g clip-path="url(#clip0_2988_37620)">
<path d="M21.5872 0.0150131C21.5235 -0.0562368 19.2266 0.0431382 17.2278 2.21251C15.2291 4.38001 15.5366 6.86626 15.5816 6.93001C15.6266 6.99376 18.4316 7.09314 20.2222 4.57126C22.0128 2.04939 21.651 0.0881381 21.5872 0.0150131ZM27.801 22.0144C27.711 21.8344 23.4416 19.7006 23.8391 15.5981C24.2366 11.4938 26.9797 10.3688 27.0228 10.2469C27.066 10.125 25.9035 8.76564 24.6716 8.07751C23.7671 7.59236 22.7661 7.3144 21.741 7.26376C21.5385 7.25814 20.8353 7.08564 19.3897 7.48126C18.4372 7.74189 16.2903 8.58564 15.6997 8.61939C15.1072 8.65314 13.3447 7.64064 11.4491 7.37251C10.236 7.13814 8.9497 7.61814 8.02908 7.98751C7.11033 8.35501 5.36283 9.40126 4.14033 12.1819C2.91783 14.9606 3.5572 19.3631 4.0147 20.7319C4.4722 22.0988 5.18658 24.3394 6.40158 25.9744C7.48158 27.8194 8.91408 29.1 9.51221 29.535C10.1103 29.97 11.7978 30.2588 12.9678 29.6606C13.9091 29.0831 15.6078 28.7513 16.2791 28.7756C16.9485 28.8 18.2685 29.0644 19.6203 29.7863C20.691 30.1556 21.7035 30.0019 22.7178 29.5894C23.7322 29.175 25.2003 27.6038 26.9141 24.4181C27.5647 22.9369 27.861 22.1363 27.801 22.0144Z" fill="white"/>
<path d="M21.5872 0.0150131C21.5235 -0.0562368 19.2266 0.0431382 17.2278 2.21251C15.2291 4.38001 15.5366 6.86626 15.5816 6.93001C15.6266 6.99376 18.4316 7.09314 20.2222 4.57126C22.0128 2.04939 21.651 0.0881381 21.5872 0.0150131ZM27.801 22.0144C27.711 21.8344 23.4416 19.7006 23.8391 15.5981C24.2366 11.4938 26.9797 10.3688 27.0228 10.2469C27.066 10.125 25.9035 8.76564 24.6716 8.07751C23.7671 7.59236 22.7661 7.3144 21.741 7.26376C21.5385 7.25814 20.8353 7.08564 19.3897 7.48126C18.4372 7.74189 16.2903 8.58564 15.6997 8.61939C15.1072 8.65314 13.3447 7.64064 11.4491 7.37251C10.236 7.13814 8.9497 7.61814 8.02908 7.98751C7.11033 8.35501 5.36283 9.40126 4.14033 12.1819C2.91783 14.9606 3.5572 19.3631 4.0147 20.7319C4.4722 22.0988 5.18658 24.3394 6.40158 25.9744C7.48158 27.8194 8.91408 29.1 9.51221 29.535C10.1103 29.97 11.7978 30.2588 12.9678 29.6606C13.9091 29.0831 15.6078 28.7513 16.2791 28.7756C16.9485 28.8 18.2685 29.0644 19.6203 29.7863C20.691 30.1556 21.7035 30.0019 22.7178 29.5894C23.7322 29.175 25.2003 27.6038 26.9141 24.4181C27.5647 22.9369 27.861 22.1363 27.801 22.0144Z" fill="white"/>
</g>
<defs>
<clipPath id="clip0_2988_37620">
<rect x="0.621094" width="30" height="30" rx="15" fill="white"/>
</clipPath>
</defs>
</svg>
