<svg width="30" height="33" viewBox="0 0 30 33" fill="none" xmlns="http://www.w3.org/2000/svg">
<path d="M14.0109 15.7633L0.125 29.6546C0.280937 30.1823 0.561162 30.669 0.944252 31.0774C1.32734 31.4858 1.80316 31.8051 2.33532 32.0111C2.86748 32.217 3.44191 32.304 4.01469 32.2654C4.58746 32.2269 5.14343 32.0638 5.64008 31.7886L21.2643 23.2919L14.0109 15.7633Z" fill="#EA4335"/>
<path d="M28.0511 13.402L21.2947 9.70676L13.6895 16.0793L21.3256 23.272L28.0306 19.6163C28.6246 19.3193 29.1221 18.8728 29.4693 18.325C29.8164 17.7773 29.9999 17.1493 29.9999 16.5091C29.9999 15.8689 29.8164 15.2409 29.4693 14.6932C29.1221 14.1454 28.6246 13.6989 28.0306 13.4019L28.0511 13.402Z" fill="#FBBC04"/>
<path d="M0.124255 3.29477C0.0403714 3.59106 -0.00140914 3.89678 3.62537e-05 4.2037V28.7456C0.000864544 29.0524 0.0426065 29.3579 0.124255 29.6546L14.4862 16.119L0.124255 3.29477Z" fill="#4285F4"/>
<path d="M14.1144 16.4747L21.2954 9.70688L5.69187 1.17053C5.1048 0.842252 4.43709 0.668394 3.75676 0.666663C2.06844 0.66353 0.584141 1.73348 0.125 3.28493L14.1144 16.4747Z" fill="#34A853"/>
</svg>
