<svg width="29" height="29" viewBox="0 0 29 29" fill="none" xmlns="http://www.w3.org/2000/svg">
<path d="M14.5 24.7083C15.8406 24.7083 17.168 24.4443 18.4066 23.9313C19.6451 23.4183 20.7705 22.6663 21.7184 21.7184C22.6663 20.7705 23.4183 19.6451 23.9313 18.4066C24.4443 17.168 24.7083 15.8406 24.7083 14.5M14.5 24.7083C11.7926 24.7083 9.19605 23.6328 7.28162 21.7184C5.36718 19.8039 4.29167 17.2074 4.29167 14.5M14.5 24.7083V27.625M24.7083 14.5C24.7083 13.1594 24.4443 11.832 23.9313 10.5934C23.4183 9.35491 22.6663 8.22955 21.7184 7.28162C20.7705 6.33369 19.6451 5.58175 18.4066 5.06873C17.168 4.55571 15.8406 4.29167 14.5 4.29167M24.7083 14.5H27.625M14.5 4.29167C11.7926 4.29167 9.19605 5.36718 7.28162 7.28162C5.36718 9.19605 4.29167 11.7926 4.29167 14.5M14.5 4.29167V1.375M4.29167 14.5H1.375" stroke="#A4A3A3" stroke-width="1.5" stroke-linecap="round" stroke-linejoin="round"/>
</svg>
